<?xml version="1.0" encoding="utf-8"?>
<!-- Generator: Adobe Illustrator 25.2.3, SVG Export Plug-In . SVG Version: 6.00 Build 0)  -->
<svg version="1.1" id="Layer_1" xmlns="http://www.w3.org/2000/svg" xmlns:xlink="http://www.w3.org/1999/xlink" x="0px" y="0px"
	 viewBox="0 0 192.8 192.8" style="enable-background:new 0 0 192.8 192.8;" xml:space="preserve">
<style type="text/css">
	.st0{fill-rule:evenodd;clip-rule:evenodd;fill:#006189;}
	.st1{fill-rule:evenodd;clip-rule:evenodd;fill:#E38F00;}
</style>
<g id="Layer_2_1_">
	<g id="Layer_1-2">
		<path class="st0" d="M8.5,128.2h5.8v-23l9.1,20c1,2.4,2.5,3.3,5.4,3.3s4.2-0.9,5.3-3.3l9-20v23h5.8v-23c0-2.2-0.9-3.3-2.8-3.9
			c-4.4-1.3-7.4-0.2-8.7,2.8L28.5,124L20,104.2c-1.3-3-4.3-4.2-8.7-2.8c-1.8,0.6-2.7,1.7-2.7,3.9L8.5,128.2L8.5,128.2z"/>
		<path class="st0" d="M53.7,109.5h5.8v12.6c0,0.7,0.2,2.3,3.4,2.4c1.6,0,12.6,0,12.7,0v-15.1h5.8v20.7c0,5.1-6.3,6.2-9.2,6.2H53.8
			v-3.9h18.4c3.8-0.4,3.3-2.3,3.3-2.9V128H63.2c-5.8,0-9.5-2.6-9.5-5.5C53.7,122.2,53.8,109.6,53.7,109.5L53.7,109.5z"/>
		<path class="st0" d="M179.1,94.9c-2.9-0.2-5.9,0.2-8.7,1.2c-0.7,0.3-1.7,0.3-1.8,1.1c0.4,0.4,0.4,0.9,0.7,1.4c0.6,1,1.4,2,2.3,2.7
			c0.9,0.7,1.9,1.4,2.9,2c1.7,1.1,3.7,1.7,5.4,2.8c1,0.6,2,1.4,2.9,2.1c0.5,0.3,0.8,0.9,1.4,1.2v-0.1c-0.3-0.4-0.4-1-0.7-1.4
			s-0.9-0.8-1.3-1.3c-1.3-1.7-2.9-3.3-4.6-4.5c-1.4-1-4.6-2.3-5.1-4l-0.1-0.1c1-0.1,2.1-0.4,3.1-0.7c1.5-0.4,2.9-0.3,4.5-0.7
			c0.7-0.2,1.4-0.4,2.1-0.6v-0.4c-0.8-0.8-1.4-1.9-2.2-2.6c-2.3-2-4.8-3.9-7.4-5.5c-1.4-0.9-3.2-1.5-4.6-2.2
			c-0.5-0.3-1.4-0.4-1.7-0.8c-0.7-1-1.3-2.2-1.8-3.3c-1.3-2.5-2.5-5.2-3.7-7.8c-0.7-1.7-1.4-3.4-2.3-5.1
			c-4.6-7.6-9.6-12.2-17.3-16.7c-1.8-0.9-3.7-1.5-5.7-1.8c-1.1,0-2.2-0.1-3.4-0.2c-0.7-0.5-1.4-1-2.1-1.6c-2.6-1.6-9.1-5.1-11-0.5
			c-1.2,2.9,1.8,5.8,2.8,7.2c0.9,1,1.6,2.1,2.3,3.3c0.3,0.8,0.4,1.6,0.7,2.4c0.7,2,1.4,4,2.3,6c0.5,1,1,1.9,1.6,2.8
			c0.4,0.5,1,0.7,1.1,1.5c-0.6,0.9-0.7,2.2-1,3.3c-1.6,5-1,11.3,1.3,15c0.7,1.1,2.4,3.6,4.7,2.6c2-0.8,1.6-3.3,2.1-5.6
			c0.1-0.5,0.1-0.9,0.3-1.2v0.1c0.6,1.2,1.2,2.5,1.8,3.7c1.6,2.3,3.6,4.3,5.8,6c1.1,0.8,1.9,2.2,3.3,2.7V97H148
			c-0.3-0.3-0.6-0.6-1-0.9c-0.8-0.8-1.6-1.7-2.3-2.7c-1.9-2.6-3.6-5.3-5-8.1c-0.7-1.4-1.3-2.9-1.9-4.3c-0.3-0.5-0.3-1.3-0.7-1.6
			c-0.8,0.9-1.5,1.9-2.1,3c-0.9,1.9-0.9,4.3-1.2,6.7c-0.2,0-0.1,0-0.2,0.1c-1.4-0.4-1.9-1.8-2.5-3.1c-1.4-3.8-1.5-8-0.4-11.9
			c0.3-0.9,1.6-3.9,1.1-4.8c-0.3-0.8-1.2-1.3-1.6-2c-0.6-0.9-1.2-1.9-1.6-2.9c-1.1-2.5-1.6-5.3-2.8-7.8c-0.6-1.2-1.4-2.4-2.2-3.4
			c-0.9-1.1-1.8-2.2-2.5-3.4c-0.2-0.5-0.5-1.3-0.2-1.8c0.1-0.3,0.3-0.5,0.6-0.6c0.6-0.5,2.2,0.1,2.8,0.4c1.5,0.6,3,1.3,4.4,2.2
			c0.6,0.5,1.3,1.3,2.1,1.5h0.9c1.4,0.3,3,0.1,4.4,0.5c2.3,0.8,4.4,1.8,6.4,3.1c5.9,3.8,10.7,9,13.9,15.3c0.5,1,0.8,2,1.2,3
			c0.9,2.2,2.1,4.4,3,6.6c0.8,2.1,1.9,4.1,3.2,6c0.7,0.9,3.3,1.4,4.6,1.9c1,0.4,2.1,0.8,3.1,1.2c1.5,0.9,3,2,4.5,3
			C176.6,92.8,178.9,93.9,179.1,94.9L179.1,94.9z"/>
		<path class="st0" d="M133.6,56.1c-0.6,0-1.2,0.1-1.8,0.2v0.1h0.1c0.4,0.6,0.9,1.3,1.4,1.8c0.4,0.7,0.7,1.4,1,2.1l0.1-0.1
			c0.7-0.5,1-1.4,0.9-2.2c-0.2-0.3-0.4-0.6-0.5-0.9C134.5,56.7,133.9,56.5,133.6,56.1L133.6,56.1z"/>
		<path class="st1" d="M85.9,128.2h16.8c1.8,0,3.7-0.4,5.4-1.1c2.5-1.2,3.7-2.7,3.7-4.8V118c0-1.7-1.4-3.2-4.2-4.3
			c-1.6-0.6-3.3-0.9-5-0.8h-7c-2.4,0-3.5-0.7-3.8-2.3c0-0.2,0-0.4,0-0.5v-2.6c0-0.2,0-0.3,0-0.5c0.3-1.2,0.9-1.5,3-1.7H112v-3.9
			H95.7c-1.6-0.1-3.2,0.1-4.7,0.5c-3.4,1.1-5,2.8-5,5.8v3.4c0,2.6,3,4.9,8,5.4c0.5,0,1.1,0,1.7,0h6c0.2,0,0.4,0,0.6,0
			c1.8,0.2,2.6,0.5,3.2,1.2c0.3,0.3,0.5,0.7,0.4,1.1v3.4c-0.1,0.6-0.4,1.1-0.8,1.4c-0.7,0.5-1.6,0.8-2.5,0.8c-0.2,0-0.3,0-0.6,0
			H85.9v3.9V128.2z"/>
		<path class="st1" d="M148.1,121.5c0,4,3,6.2,9,6.7c0.6,0,1.1,0.1,1.7,0.1H174v-3.9h-15.4c-3.4,0-4.7-0.8-4.7-2.9v-20.1h-5.9V121.5
			z"/>
		<path class="st1" d="M115.5,121.7v-13.8c0-3.5,2.5-5.7,7.4-6.3c0.5,0,1.1-0.1,1.6-0.1h11.1c0.6,0,1.1,0,1.6,0.1
			c4.9,0.7,7.3,2.8,7.3,6.3v13.8c0,2.8-1,4.4-3.4,5.4l5.7,5.2H140l-4.6-4.2l-4.7,0.3h-6.2c-1.1,0-2.3-0.2-3.4-0.4
			C117.3,126.8,115.5,124.8,115.5,121.7L115.5,121.7z M121.8,121.3c0,0.2,0.1,0.4,0.1,0.6c0.3,1.6,1.8,2.5,4.2,2.5h5.3l-4.8-4.4h6.7
			l4.2,3.8c1-0.4,1.6-1.4,1.5-2.5v-13.2c0-0.2,0-0.4,0-0.5c-0.3-1.5-1.8-2.4-4.1-2.4h-8.8c-2.6,0-4.3,1.1-4.3,2.9L121.8,121.3
			L121.8,121.3z"/>
		<path class="st1" d="M176.6,128.3h0.9V125h1.1v-0.7h-3.1v0.7h1.2V128.3z M183.1,128.3h0.8v-3.9h-1.2l-1,2.7l-1.1-2.7h-1.2v3.9h0.8
			v-3l0,0l1.1,3h0.7l1.1-3l0,0L183.1,128.3L183.1,128.3z"/>
	</g>
</g>
</svg>
